<mxfile host="65bd71144e">
    <diagram id="0Qc1mKY5N0yM811SBWDN" name="Architecture">
        <mxGraphModel dx="741" dy="692" grid="1" gridSize="10" guides="1" tooltips="1" connect="1" arrows="1" fold="1" page="1" pageScale="1" pageWidth="850" pageHeight="1100" math="0" shadow="0">
            <root>
                <mxCell id="0"/>
                <mxCell id="1" parent="0"/>
                <mxCell id="3" value="Coordinator" style="swimlane;whiteSpace=wrap;html=1;fillColor=#dae8fc;strokeColor=#6c8ebf;" parent="1" vertex="1">
                    <mxGeometry x="215" y="90" width="290" height="170" as="geometry"/>
                </mxCell>
                <mxCell id="4" value="Query Planning" style="rounded=1;whiteSpace=wrap;html=1;fillColor=#dae8fc;strokeColor=#6c8ebf;" parent="3" vertex="1">
                    <mxGeometry x="10" y="35" width="120" height="60" as="geometry"/>
                </mxCell>
                <mxCell id="5" value="Global Priority Queue" style="rounded=1;whiteSpace=wrap;html=1;fillColor=#dae8fc;strokeColor=#6c8ebf;" parent="3" vertex="1">
                    <mxGeometry x="160" y="35" width="120" height="60" as="geometry"/>
                </mxCell>
                <mxCell id="6" value="&amp;nbsp;Scheduler" style="rounded=1;whiteSpace=wrap;html=1;fillColor=#dae8fc;strokeColor=#6c8ebf;" parent="3" vertex="1">
                    <mxGeometry x="10" y="100" width="120" height="60" as="geometry"/>
                </mxCell>
                <mxCell id="36" value="Metrics Tracker" style="rounded=1;whiteSpace=wrap;html=1;fillColor=#dae8fc;strokeColor=#6c8ebf;" parent="3" vertex="1">
                    <mxGeometry x="160" y="100" width="120" height="60" as="geometry"/>
                </mxCell>
                <mxCell id="9" value="Worker / SST" style="swimlane;whiteSpace=wrap;html=1;fillColor=#d5e8d4;strokeColor=#82b366;" parent="1" vertex="1">
                    <mxGeometry x="10" y="330" width="200" height="180" as="geometry"/>
                </mxCell>
                <mxCell id="10" value="IVF Idx A" style="rounded=1;whiteSpace=wrap;html=1;" parent="9" vertex="1">
                    <mxGeometry x="10" y="40" width="80" height="60" as="geometry"/>
                </mxCell>
                <mxCell id="11" value="IVF Idx B" style="rounded=1;whiteSpace=wrap;html=1;" parent="9" vertex="1">
                    <mxGeometry x="105" y="40" width="80" height="60" as="geometry"/>
                </mxCell>
                <mxCell id="12" value="IVF Idx C" style="rounded=1;whiteSpace=wrap;html=1;" parent="9" vertex="1">
                    <mxGeometry x="10" y="110" width="80" height="60" as="geometry"/>
                </mxCell>
                <mxCell id="13" value="RTree" style="rounded=1;whiteSpace=wrap;html=1;" parent="9" vertex="1">
                    <mxGeometry x="105" y="110" width="80" height="60" as="geometry"/>
                </mxCell>
                <mxCell id="37" value="" style="endArrow=classic;startArrow=classic;html=1;exitX=0.5;exitY=0;exitDx=0;exitDy=0;entryX=0.5;entryY=1;entryDx=0;entryDy=0;" parent="1" source="9" target="3" edge="1">
                    <mxGeometry width="50" height="50" relative="1" as="geometry">
                        <mxPoint x="470" y="230" as="sourcePoint"/>
                        <mxPoint x="520" y="180" as="targetPoint"/>
                    </mxGeometry>
                </mxCell>
                <mxCell id="IIKD3ieqCAa0DH8t4sym-39" value="Worker" style="swimlane;whiteSpace=wrap;html=1;fillColor=#d5e8d4;strokeColor=#82b366;" parent="1" vertex="1">
                    <mxGeometry x="260" y="330" width="200" height="180" as="geometry"/>
                </mxCell>
                <mxCell id="IIKD3ieqCAa0DH8t4sym-40" value="IVF Idx A" style="rounded=1;whiteSpace=wrap;html=1;" parent="IIKD3ieqCAa0DH8t4sym-39" vertex="1">
                    <mxGeometry x="10" y="40" width="80" height="60" as="geometry"/>
                </mxCell>
                <mxCell id="IIKD3ieqCAa0DH8t4sym-41" value="IVF Idx B" style="rounded=1;whiteSpace=wrap;html=1;" parent="IIKD3ieqCAa0DH8t4sym-39" vertex="1">
                    <mxGeometry x="105" y="40" width="80" height="60" as="geometry"/>
                </mxCell>
                <mxCell id="IIKD3ieqCAa0DH8t4sym-42" value="IVF Idx C" style="rounded=1;whiteSpace=wrap;html=1;" parent="IIKD3ieqCAa0DH8t4sym-39" vertex="1">
                    <mxGeometry x="10" y="110" width="80" height="60" as="geometry"/>
                </mxCell>
                <mxCell id="IIKD3ieqCAa0DH8t4sym-43" value="RTree" style="rounded=1;whiteSpace=wrap;html=1;" parent="IIKD3ieqCAa0DH8t4sym-39" vertex="1">
                    <mxGeometry x="105" y="110" width="80" height="60" as="geometry"/>
                </mxCell>
                <mxCell id="IIKD3ieqCAa0DH8t4sym-45" value="Worker" style="swimlane;whiteSpace=wrap;html=1;fillColor=#d5e8d4;strokeColor=#82b366;" parent="1" vertex="1">
                    <mxGeometry x="520" y="330" width="200" height="180" as="geometry"/>
                </mxCell>
                <mxCell id="IIKD3ieqCAa0DH8t4sym-46" value="IVF Idx A" style="rounded=1;whiteSpace=wrap;html=1;" parent="IIKD3ieqCAa0DH8t4sym-45" vertex="1">
                    <mxGeometry x="10" y="40" width="80" height="60" as="geometry"/>
                </mxCell>
                <mxCell id="IIKD3ieqCAa0DH8t4sym-47" value="IVF Idx B" style="rounded=1;whiteSpace=wrap;html=1;" parent="IIKD3ieqCAa0DH8t4sym-45" vertex="1">
                    <mxGeometry x="105" y="40" width="80" height="60" as="geometry"/>
                </mxCell>
                <mxCell id="IIKD3ieqCAa0DH8t4sym-48" value="IVF Idx C" style="rounded=1;whiteSpace=wrap;html=1;" parent="IIKD3ieqCAa0DH8t4sym-45" vertex="1">
                    <mxGeometry x="10" y="110" width="80" height="60" as="geometry"/>
                </mxCell>
                <mxCell id="IIKD3ieqCAa0DH8t4sym-49" value="RTree" style="rounded=1;whiteSpace=wrap;html=1;" parent="IIKD3ieqCAa0DH8t4sym-45" vertex="1">
                    <mxGeometry x="105" y="110" width="80" height="60" as="geometry"/>
                </mxCell>
                <mxCell id="IIKD3ieqCAa0DH8t4sym-51" value="" style="endArrow=classic;startArrow=classic;html=1;exitX=0.5;exitY=0;exitDx=0;exitDy=0;entryX=0.5;entryY=1;entryDx=0;entryDy=0;" parent="1" source="IIKD3ieqCAa0DH8t4sym-39" target="3" edge="1">
                    <mxGeometry width="50" height="50" relative="1" as="geometry">
                        <mxPoint x="460" y="390" as="sourcePoint"/>
                        <mxPoint x="510" y="340" as="targetPoint"/>
                    </mxGeometry>
                </mxCell>
                <mxCell id="IIKD3ieqCAa0DH8t4sym-52" value="" style="endArrow=classic;startArrow=classic;html=1;exitX=0.5;exitY=0;exitDx=0;exitDy=0;entryX=0.5;entryY=1;entryDx=0;entryDy=0;" parent="1" source="IIKD3ieqCAa0DH8t4sym-45" target="3" edge="1">
                    <mxGeometry width="50" height="50" relative="1" as="geometry">
                        <mxPoint x="370" y="340" as="sourcePoint"/>
                        <mxPoint x="370" y="270" as="targetPoint"/>
                    </mxGeometry>
                </mxCell>
                <mxCell id="14" value="RocksDB Storage" style="rounded=1;whiteSpace=wrap;html=1;" parent="1" vertex="1">
                    <mxGeometry x="112.5" y="530" width="495" height="40" as="geometry"/>
                </mxCell>
            </root>
        </mxGraphModel>
    </diagram>
    <diagram id="8TPOSrRrrKBthSM1n5AC" name="Query Processing">
        <mxGraphModel dx="741" dy="692" grid="1" gridSize="10" guides="1" tooltips="1" connect="1" arrows="1" fold="1" page="1" pageScale="1" pageWidth="850" pageHeight="1100" math="0" shadow="0">
            <root>
                <mxCell id="0"/>
                <mxCell id="1" parent="0"/>
                <mxCell id="bQKihpduimx1Wg7ontq5-18" value="" style="rounded=0;whiteSpace=wrap;html=1;fillColor=none;" parent="1" vertex="1">
                    <mxGeometry x="405" y="170" width="150" height="280" as="geometry"/>
                </mxCell>
                <mxCell id="bQKihpduimx1Wg7ontq5-16" value="" style="rounded=0;whiteSpace=wrap;html=1;fillColor=none;" parent="1" vertex="1">
                    <mxGeometry x="235" y="170" width="150" height="280" as="geometry"/>
                </mxCell>
                <mxCell id="bQKihpduimx1Wg7ontq5-2" value="" style="rounded=0;whiteSpace=wrap;html=1;dashed=1;gradientColor=none;fillColor=none;" parent="1" vertex="1">
                    <mxGeometry x="50" y="190" width="640" height="120" as="geometry"/>
                </mxCell>
                <mxCell id="bQKihpduimx1Wg7ontq5-14" value="" style="rounded=0;whiteSpace=wrap;html=1;fillColor=none;" parent="1" vertex="1">
                    <mxGeometry x="60" y="170" width="150" height="280" as="geometry"/>
                </mxCell>
                <mxCell id="7MbJrSCqZ-pOb6URe7sy-1" value="Global Priority Queue" style="rounded=1;whiteSpace=wrap;html=1;fillColor=#dae8fc;strokeColor=#6c8ebf;" parent="1" vertex="1">
                    <mxGeometry x="240" y="500" width="180" height="60" as="geometry"/>
                </mxCell>
                <mxCell id="AYSZJEVNJC1bHv4a6mPW-1" value="Scheduler" style="rounded=1;whiteSpace=wrap;html=1;fillColor=#dae8fc;strokeColor=#6c8ebf;" parent="1" vertex="1">
                    <mxGeometry x="265" y="70" width="120" height="60" as="geometry"/>
                </mxCell>
                <mxCell id="AYSZJEVNJC1bHv4a6mPW-3" value="Idx A @ Worker1&amp;nbsp;" style="rounded=1;whiteSpace=wrap;html=1;" parent="1" vertex="1">
                    <mxGeometry x="70" y="220" width="120" height="60" as="geometry"/>
                </mxCell>
                <mxCell id="apGXKYWrymHWZE61tVBn-1" value="Idx B @ Worker1&amp;nbsp;" style="rounded=1;whiteSpace=wrap;html=1;" parent="1" vertex="1">
                    <mxGeometry x="250" y="220" width="120" height="60" as="geometry"/>
                </mxCell>
                <mxCell id="apGXKYWrymHWZE61tVBn-2" value="Idx C @ Worker1" style="rounded=1;whiteSpace=wrap;html=1;" parent="1" vertex="1">
                    <mxGeometry x="420" y="220" width="120" height="60" as="geometry"/>
                </mxCell>
                <mxCell id="bQKihpduimx1Wg7ontq5-3" value="Worker 1" style="text;html=1;align=center;verticalAlign=middle;whiteSpace=wrap;rounded=0;" parent="1" vertex="1">
                    <mxGeometry x="620" y="280" width="60" height="30" as="geometry"/>
                </mxCell>
                <mxCell id="bQKihpduimx1Wg7ontq5-9" value="" style="rounded=0;whiteSpace=wrap;html=1;dashed=1;fillColor=none;" parent="1" vertex="1">
                    <mxGeometry x="50" y="320" width="640" height="120" as="geometry"/>
                </mxCell>
                <mxCell id="bQKihpduimx1Wg7ontq5-10" value="Idx A @ Worker2" style="rounded=1;whiteSpace=wrap;html=1;" parent="1" vertex="1">
                    <mxGeometry x="70" y="350" width="120" height="60" as="geometry"/>
                </mxCell>
                <mxCell id="bQKihpduimx1Wg7ontq5-11" value="Idx B @ Worker2" style="rounded=1;whiteSpace=wrap;html=1;" parent="1" vertex="1">
                    <mxGeometry x="250" y="350" width="120" height="60" as="geometry"/>
                </mxCell>
                <mxCell id="bQKihpduimx1Wg7ontq5-12" value="Idx C @ Worker2" style="rounded=1;whiteSpace=wrap;html=1;" parent="1" vertex="1">
                    <mxGeometry x="420" y="350" width="120" height="60" as="geometry"/>
                </mxCell>
                <mxCell id="bQKihpduimx1Wg7ontq5-13" value="Worker 2" style="text;html=1;align=center;verticalAlign=middle;whiteSpace=wrap;rounded=0;" parent="1" vertex="1">
                    <mxGeometry x="620" y="410" width="60" height="30" as="geometry"/>
                </mxCell>
                <mxCell id="bQKihpduimx1Wg7ontq5-15" value="Index A" style="text;html=1;align=center;verticalAlign=middle;whiteSpace=wrap;rounded=0;" parent="1" vertex="1">
                    <mxGeometry x="105" y="150" width="60" height="30" as="geometry"/>
                </mxCell>
                <mxCell id="bQKihpduimx1Wg7ontq5-17" value="Index B" style="text;html=1;align=center;verticalAlign=middle;whiteSpace=wrap;rounded=0;" parent="1" vertex="1">
                    <mxGeometry x="280" y="150" width="60" height="30" as="geometry"/>
                </mxCell>
                <mxCell id="bQKihpduimx1Wg7ontq5-19" value="Index C" style="text;html=1;align=center;verticalAlign=middle;whiteSpace=wrap;rounded=0;" parent="1" vertex="1">
                    <mxGeometry x="450" y="150" width="60" height="30" as="geometry"/>
                </mxCell>
                <mxCell id="bQKihpduimx1Wg7ontq5-21" value="" style="endArrow=classic;html=1;exitX=0.5;exitY=1;exitDx=0;exitDy=0;entryX=0.5;entryY=0;entryDx=0;entryDy=0;" parent="1" source="AYSZJEVNJC1bHv4a6mPW-1" target="AYSZJEVNJC1bHv4a6mPW-3" edge="1">
                    <mxGeometry width="50" height="50" relative="1" as="geometry">
                        <mxPoint x="360" y="340" as="sourcePoint"/>
                        <mxPoint x="351" y="190" as="targetPoint"/>
                    </mxGeometry>
                </mxCell>
                <mxCell id="bQKihpduimx1Wg7ontq5-22" value="" style="endArrow=classic;html=1;exitX=0.5;exitY=1;exitDx=0;exitDy=0;entryX=0.5;entryY=0;entryDx=0;entryDy=0;" parent="1" source="AYSZJEVNJC1bHv4a6mPW-1" target="apGXKYWrymHWZE61tVBn-1" edge="1">
                    <mxGeometry width="50" height="50" relative="1" as="geometry">
                        <mxPoint x="345" y="150" as="sourcePoint"/>
                        <mxPoint x="140" y="230" as="targetPoint"/>
                    </mxGeometry>
                </mxCell>
                <mxCell id="bQKihpduimx1Wg7ontq5-23" value="" style="endArrow=classic;html=1;exitX=0.5;exitY=1;exitDx=0;exitDy=0;entryX=0.5;entryY=0;entryDx=0;entryDy=0;" parent="1" source="AYSZJEVNJC1bHv4a6mPW-1" target="apGXKYWrymHWZE61tVBn-2" edge="1">
                    <mxGeometry width="50" height="50" relative="1" as="geometry">
                        <mxPoint x="345" y="150" as="sourcePoint"/>
                        <mxPoint x="320" y="230" as="targetPoint"/>
                    </mxGeometry>
                </mxCell>
                <mxCell id="bQKihpduimx1Wg7ontq5-24" value="" style="endArrow=classic;html=1;exitX=0.5;exitY=1;exitDx=0;exitDy=0;entryX=0.5;entryY=0;entryDx=0;entryDy=0;" parent="1" source="AYSZJEVNJC1bHv4a6mPW-1" target="bQKihpduimx1Wg7ontq5-10" edge="1">
                    <mxGeometry width="50" height="50" relative="1" as="geometry">
                        <mxPoint x="345" y="150" as="sourcePoint"/>
                        <mxPoint x="140" y="230" as="targetPoint"/>
                    </mxGeometry>
                </mxCell>
                <mxCell id="bQKihpduimx1Wg7ontq5-25" value="" style="endArrow=classic;html=1;exitX=0.5;exitY=1;exitDx=0;exitDy=0;" parent="1" source="AYSZJEVNJC1bHv4a6mPW-1" target="bQKihpduimx1Wg7ontq5-11" edge="1">
                    <mxGeometry width="50" height="50" relative="1" as="geometry">
                        <mxPoint x="340" y="140" as="sourcePoint"/>
                        <mxPoint x="140" y="360" as="targetPoint"/>
                    </mxGeometry>
                </mxCell>
                <mxCell id="bQKihpduimx1Wg7ontq5-26" value="" style="endArrow=classic;html=1;exitX=0.5;exitY=1;exitDx=0;exitDy=0;entryX=0.5;entryY=0;entryDx=0;entryDy=0;" parent="1" source="AYSZJEVNJC1bHv4a6mPW-1" target="bQKihpduimx1Wg7ontq5-12" edge="1">
                    <mxGeometry width="50" height="50" relative="1" as="geometry">
                        <mxPoint x="350" y="150" as="sourcePoint"/>
                        <mxPoint x="324" y="360" as="targetPoint"/>
                    </mxGeometry>
                </mxCell>
                <mxCell id="5trH87fNE9yDXkbul9UO-1" value="Threshold Algorithm&lt;div&gt;Early Stopping?&lt;/div&gt;" style="rounded=1;whiteSpace=wrap;html=1;fillColor=#dae8fc;strokeColor=#6c8ebf;" vertex="1" parent="1">
                    <mxGeometry x="270" y="600" width="120" height="60" as="geometry"/>
                </mxCell>
                <mxCell id="5trH87fNE9yDXkbul9UO-3" value="" style="endArrow=classic;html=1;entryX=0.5;entryY=0;entryDx=0;entryDy=0;" edge="1" parent="1" target="7MbJrSCqZ-pOb6URe7sy-1">
                    <mxGeometry width="50" height="50" relative="1" as="geometry">
                        <mxPoint x="330" y="470" as="sourcePoint"/>
                        <mxPoint x="410" y="340" as="targetPoint"/>
                    </mxGeometry>
                </mxCell>
                <mxCell id="5trH87fNE9yDXkbul9UO-4" value="" style="endArrow=classic;html=1;exitX=0.5;exitY=1;exitDx=0;exitDy=0;entryX=0.5;entryY=0;entryDx=0;entryDy=0;" edge="1" parent="1" source="7MbJrSCqZ-pOb6URe7sy-1" target="5trH87fNE9yDXkbul9UO-1">
                    <mxGeometry width="50" height="50" relative="1" as="geometry">
                        <mxPoint x="360" y="390" as="sourcePoint"/>
                        <mxPoint x="410" y="340" as="targetPoint"/>
                    </mxGeometry>
                </mxCell>
                <mxCell id="5trH87fNE9yDXkbul9UO-5" value="" style="endArrow=classic;html=1;exitX=1.008;exitY=0.4;exitDx=0;exitDy=0;exitPerimeter=0;" edge="1" parent="1" source="5trH87fNE9yDXkbul9UO-1">
                    <mxGeometry width="50" height="50" relative="1" as="geometry">
                        <mxPoint x="440" y="610" as="sourcePoint"/>
                        <mxPoint x="410" y="100" as="targetPoint"/>
                        <Array as="points">
                            <mxPoint x="730" y="630"/>
                            <mxPoint x="730" y="100"/>
                        </Array>
                    </mxGeometry>
                </mxCell>
            </root>
        </mxGraphModel>
    </diagram>
</mxfile>